<svg version="1.1" id="Layer_1" xmlns="http://www.w3.org/2000/svg" xmlns:xlink="http://www.w3.org/1999/xlink" x="0px" y="0px"
	 width="100%" viewBox="0 0 496 496" enable-background="new 0 0 496 496" xml:space="preserve">
<path fill="#000000" opacity="1.000000" stroke="none" 
	d="
M175.518860,244.480850 
	C164.546722,233.522430 153.900452,222.736404 143.058411,212.150894 
	C140.237656,209.396881 139.748047,207.592880 142.835342,204.531113 
	C165.772446,181.783508 188.580231,158.904816 211.309875,135.949692 
	C213.913727,133.320007 215.694183,133.099060 218.210602,135.833267 
	C221.251297,139.137085 224.593689,142.162003 227.779602,145.333633 
	C232.895889,150.426926 232.886169,150.435196 238.167313,145.168762 
	C240.879303,142.464294 243.587372,139.755859 246.309830,137.061981 
	C250.866501,132.553192 250.881180,132.546860 255.642075,137.216461 
	C258.970551,140.481094 262.363831,143.688156 265.541779,147.094818 
	C267.724976,149.435150 269.528290,149.521774 271.759033,147.203018 
	C275.336670,143.484253 279.271881,140.093582 282.679657,136.232178 
	C285.691711,132.819214 287.823364,132.878250 291.057617,136.162781 
	C308.583527,153.961136 326.318512,171.553635 343.983185,189.215363 
	C349.164764,194.396072 354.277588,199.648834 359.569244,204.714706 
	C362.055084,207.094467 362.031128,208.883270 359.572662,211.326401 
	C336.302734,234.451248 313.094452,257.638336 289.937195,280.876038 
	C287.650574,283.170593 286.002228,283.235474 283.782043,280.847351 
	C280.156128,276.947113 276.091095,273.444885 272.582703,269.448669 
	C269.736816,266.207062 267.718140,266.564850 265.022369,269.581787 
	C261.588409,273.424866 257.661896,276.823853 254.141357,280.595062 
	C251.809631,283.092804 249.985474,283.252106 247.600174,280.625183 
	C243.134964,275.707703 238.440353,270.998474 233.212357,265.546906 
	C228.089096,270.636749 223.356232,274.992584 219.049042,279.735016 
	C215.992081,283.100891 213.925705,283.141510 210.667572,279.773163 
	C199.207382,267.925323 187.429230,256.385040 175.518860,244.480850 
M183.170975,182.670914 
	C175.989670,189.854736 168.952728,197.191925 161.559570,204.150665 
	C158.382263,207.141296 158.275681,209.010254 161.450211,212.126968 
	C178.084534,228.458603 194.603729,244.910950 210.930740,261.549225 
	C214.184982,264.865479 216.062225,264.392609 218.903473,261.335297 
	C221.599533,258.434235 223.909073,256.543610 219.788330,252.571548 
	C206.123352,239.399658 192.927628,225.742142 179.354019,212.473358 
	C176.163925,209.354889 175.846573,207.393707 179.215088,204.100555 
	C192.906296,190.715500 206.226715,176.951141 219.919418,163.567627 
	C223.349228,160.215256 222.405487,158.162506 219.452179,155.511948 
	C216.815720,153.145782 215.017029,150.367706 211.125488,154.526169 
	C202.255508,164.004532 192.855331,172.986710 183.170975,182.670914 
M323.709442,187.791458 
	C311.740814,175.548721 299.772186,163.305969 287.757111,151.015686 
	C285.998413,152.332458 285.166016,152.845566 284.463806,153.498672 
	C277.999786,159.510681 278.017944,159.518494 284.272125,165.803406 
	C297.082184,178.676437 309.824677,191.617493 322.722321,204.402100 
	C325.536896,207.192017 326.033691,209.191467 322.809326,212.093933 
	C317.985535,216.436157 313.550842,221.210815 308.953766,225.804672 
	C300.113251,234.638947 291.402130,243.608521 282.370117,252.242401 
	C278.987213,255.476181 278.928131,257.853241 282.543579,260.590454 
	C283.973175,261.672760 284.815643,263.488251 286.088104,263.831512 
	C305.175232,244.869690 324.003845,226.164673 343.362518,206.933075 
	C337.075745,200.814697 330.643036,194.554321 323.709442,187.791458 
M293.867920,222.367477 
	C298.507935,217.691895 303.147980,213.016312 306.682648,209.454575 
	C293.513000,196.023544 280.876282,183.136032 268.112274,170.118698 
	C267.546417,170.614120 266.643097,171.335724 265.818390,172.138123 
	C260.018311,177.781281 260.012390,177.797745 265.640411,183.410339 
	C272.362885,190.114395 279.156311,196.748138 285.824677,203.505417 
	C290.516205,208.259552 290.442078,208.325119 285.880737,212.887665 
	C278.459778,220.310577 271.027161,227.721939 263.642426,235.180756 
	C262.305786,236.530838 260.194611,237.929459 262.301331,240.148666 
	C264.429688,242.390701 266.245880,245.051437 270.298370,246.800735 
	C277.892822,238.914795 285.625061,230.885742 293.867920,222.367477 
M223.184265,178.684799 
	C214.484802,187.386917 205.870483,196.176926 197.034210,204.737854 
	C194.366776,207.322189 194.354889,209.013458 197.005783,211.603012 
	C208.066849,222.408112 218.948166,233.397125 229.915527,244.298462 
	C230.828735,245.206161 231.637238,246.393082 233.602753,246.247528 
	C234.585388,245.337662 235.706436,244.104782 237.016006,243.123505 
	C240.983231,240.150833 241.080917,237.639572 237.233246,234.072891 
	C229.434418,226.843643 222.176514,219.034393 214.545044,211.619186 
	C211.871155,209.021072 211.442566,207.244522 214.456390,204.383560 
	C222.412033,196.831390 229.883972,188.769943 237.832718,181.210098 
	C241.027573,178.171585 240.574844,176.152817 237.544571,173.634705 
	C234.958588,171.485809 232.874100,167.816605 229.285873,172.510757 
	C227.684586,174.605560 225.567383,176.305984 223.184265,178.684799 
M231.470474,206.584442 
	C230.791504,207.467148 230.557770,208.450577 231.389084,209.287125 
	C237.800049,215.738419 244.245651,222.155273 250.960678,228.862686 
	C258.301361,221.934189 265.215210,215.396713 272.087555,207.598709 
	C265.745514,201.478073 259.697754,195.785645 253.832993,189.910507 
	C251.485123,187.558441 249.884079,187.856461 247.705765,190.160965 
	C242.566956,195.597534 237.194336,200.813126 231.470474,206.584442 
M243.838303,258.131561 
	C245.465576,259.777802 247.116165,261.401794 248.713211,263.076874 
	C250.160034,264.594330 251.363998,264.343628 252.962509,263.081299 
	C259.512054,257.909271 259.691193,256.464996 253.960220,250.960861 
	C253.030334,250.067795 252.261917,248.887314 250.226105,248.704636 
	C248.356140,251.753708 243.342377,252.592361 243.838303,258.131561 
M255.196182,155.364227 
	C253.423904,154.360931 252.591339,151.504883 249.986603,152.239334 
	C244.190643,153.873596 242.972458,160.158096 246.948441,164.625336 
	C250.626251,168.757584 252.657562,166.040298 255.364456,163.704483 
	C258.444305,161.046844 259.531372,158.624405 255.196182,155.364227 
z"/>
<path fill="#000000" opacity="1.000000" stroke="none" 
	d="
M172.947128,319.403778 
	C174.863754,316.512573 176.596222,313.872803 178.314682,311.223938 
	C179.512527,309.377563 180.740372,307.898895 183.328537,307.723297 
	C190.614517,307.228943 191.326721,307.763611 191.332047,315.089447 
	C191.333862,317.583130 191.516434,320.095520 191.272949,322.565491 
	C191.003296,325.300812 192.917984,329.123962 187.443680,329.433563 
	C182.593918,329.707825 181.217072,327.634613 181.586868,323.330261 
	C181.636429,322.753510 181.228561,322.137451 180.959854,321.317993 
	C176.731293,323.114166 177.151382,329.747467 171.110489,329.455017 
	C164.996765,329.158997 165.719513,322.821014 161.938004,320.570038 
	C160.636139,321.476257 161.063889,322.957275 161.147018,324.126831 
	C161.417908,327.937836 159.993958,329.440918 156.003555,329.433502 
	C151.838425,329.425751 151.470184,327.213348 151.573303,324.034698 
	C151.686432,320.547302 151.494202,317.049316 151.631226,313.563660 
	C151.710022,311.558990 150.759155,308.602966 153.695114,308.149780 
	C156.970779,307.644226 160.803207,306.412262 163.383301,309.896271 
	C165.456650,312.695984 167.184616,315.749115 169.141449,318.638611 
	C170.008591,319.919067 170.801834,322.018280 172.947128,319.403778 
z"/>
<path fill="#000000" opacity="1.000000" stroke="none" 
	d="
M255.801483,310.072296 
	C257.933411,306.565002 260.940643,307.526764 263.472321,308.333282 
	C265.820648,309.081421 265.145264,311.671387 265.198486,313.592072 
	C265.281464,316.586212 265.374176,319.595306 265.165680,322.577301 
	C265.005463,324.868713 266.391937,328.387390 263.115204,328.961304 
	C259.575775,329.581177 255.434464,330.784760 252.334259,327.324371 
	C249.614212,324.288330 246.961044,321.192383 244.099121,317.917847 
	C242.814743,320.181366 243.267838,322.042450 243.318924,323.791992 
	C243.418564,327.202972 242.944901,329.444153 238.551285,329.454865 
	C234.311111,329.465210 233.451279,327.546539 233.628540,323.973877 
	C233.785080,320.818726 233.491531,317.637634 233.714920,314.490570 
	C233.876038,312.220734 232.368561,308.774597 235.800980,308.133911 
	C239.389206,307.464111 243.470200,306.496826 246.476807,310.119965 
	C249.009705,313.172211 251.598526,316.178070 255.187012,320.413635 
	C255.419968,316.172119 255.575623,313.338196 255.801483,310.072296 
z"/>
<path fill="#000000" opacity="1.000000" stroke="none" 
	d="
M284.584259,329.888672 
	C281.299469,330.401733 278.519440,329.646667 275.794708,329.056488 
	C271.049957,328.028900 267.939423,324.160675 267.745239,319.509338 
	C267.535736,314.490692 269.623108,310.800415 274.377075,308.926025 
	C279.011230,307.098816 283.839844,307.176880 288.579346,308.304077 
	C294.441681,309.698334 297.281097,313.326813 297.294220,318.828094 
	C297.307098,324.233185 294.269989,327.809845 288.432098,329.207886 
	C287.304504,329.477936 286.145660,329.617279 284.584259,329.888672 
M277.813904,320.635498 
	C278.648193,321.396210 279.380249,322.335999 280.336975,322.882263 
	C282.704437,324.233917 284.804504,323.354065 286.547913,321.608093 
	C288.004456,320.149445 287.955383,318.334717 287.063141,316.600250 
	C285.897583,314.334473 283.791565,314.007843 281.567383,314.362213 
	C278.410065,314.865295 277.131958,316.849548 277.813904,320.635498 
z"/>
<path fill="#000000" opacity="1.000000" stroke="none" 
	d="
M326.096680,315.996429 
	C326.064758,307.765259 326.064758,307.757782 333.798340,307.756073 
	C338.119934,307.755127 342.441559,307.783386 346.763153,307.799316 
	C348.965668,307.807465 350.835480,308.345367 350.868195,311.012848 
	C350.902222,313.786530 348.905365,314.133453 346.759277,314.144531 
	C343.667389,314.160553 340.575378,314.148621 337.450073,314.743500 
	C339.556091,316.504272 342.029114,315.813965 344.322968,316.096313 
	C346.119049,316.317413 348.260101,316.167419 348.106628,318.892517 
	C347.973572,321.255096 346.055756,321.071350 344.412445,321.246216 
	C341.909790,321.512451 339.211792,320.567749 336.265564,322.451630 
	C340.251373,324.417480 343.908630,323.278473 347.390625,323.627197 
	C349.518036,323.840302 352.049957,323.451080 351.911591,326.759064 
	C351.783356,329.825378 349.337006,329.284454 347.452484,329.308289 
	C341.968170,329.377655 336.478851,329.213562 330.998474,329.376007 
	C327.729950,329.472900 325.968964,328.638245 326.271973,324.923340 
	C326.500214,322.124329 326.179688,319.280548 326.096680,315.996429 
z"/>
<path fill="#000000" opacity="1.000000" stroke="none" 
	d="
M220.617722,312.642090 
	C216.137177,316.286102 212.250870,319.818787 213.267563,326.104218 
	C213.638123,328.395172 212.228378,329.498840 209.980255,329.291351 
	C207.836044,329.093414 203.894821,330.157593 204.253510,327.212860 
	C205.302155,318.604065 198.836655,315.002747 194.304993,310.005554 
	C194.104691,309.784698 194.083771,309.401123 193.832123,308.659760 
	C199.926529,306.224579 204.548981,308.247253 208.384949,313.903015 
	C212.554535,309.160248 216.866013,305.978851 222.998169,308.460480 
	C223.853378,310.582184 221.866241,311.236969 220.617722,312.642090 
z"/>
<path fill="#000000" opacity="1.000000" stroke="none" 
	d="
M324.004059,310.105347 
	C324.298676,313.117767 322.879517,314.281464 320.517334,314.144745 
	C316.808289,313.930054 315.977356,315.942474 316.189270,319.088135 
	C316.300446,320.738342 316.050354,322.420105 316.235870,324.056763 
	C316.770294,328.771942 314.257599,329.675446 310.244568,329.367462 
	C307.787262,329.178894 306.550507,328.354248 306.669952,325.791077 
	C306.747009,324.137512 306.536041,322.465515 306.677521,320.820984 
	C307.031250,316.710327 306.608490,313.420685 301.122925,314.131226 
	C299.613373,314.326721 298.559814,313.521484 298.597137,311.816223 
	C298.629639,310.330078 298.502991,308.245636 300.334778,308.169891 
	C308.031860,307.851532 315.782440,306.687927 323.405426,308.861115 
	C323.636566,308.927002 323.751923,309.399078 324.004059,310.105347 
z"/>
</svg>